# xmcd CD database file
#
# Track frame offsets:
#	150
#	23865
#	51807
#	70930
#	89090
#	112038
#	137385
#	166910
#	186275
#	207078
#	225450
#	250088
#	280660
#	305250
#
# Disc length: 4431 seconds
#
# Revision: 0
# Processed by: cddbd v1.5.2PL0 Copyright (c) Steve Scherf et al.
# Submitted via: CDex 1.51
#
DISCID=bb114d0e
DTITLE=quasimode - Four Pieces -The Best Selection
DYEAR=2012
DGENRE=Jazz
TTITLE0=Catch The Fact (2012 Full Length Version)
TTITLE1=The Man From Nagpur
TTITLE2=Ascension (The Land Of Freedom Part2) feat. akiko
TTITLE3=Relight My Fire (Single Edit)
TTITLE4=Havana Brown
TTITLE5=Ant Soldier
TTITLE6=Down In The Village
TTITLE7=Music Can Change the World feat. HanaH (Single Edit)
TTITLE8=All Is One
TTITLE9=Whisky's High feat. AFRA (Single Edit)
TTITLE10=Finger Tip
TTITLE11=Last Nine Days
TTITLE12=Object in the Mirror feat. Carman Lundy, Masato Nakamura
TTITLE13=oneself-LIKENESS
EXTD=YEAR: 2012
EXTT0=
EXTT1=
EXTT2=
EXTT3=
EXTT4=
EXTT5=
EXTT6=
EXTT7=
EXTT8=
EXTT9=
EXTT10=
EXTT11=
EXTT12=
EXTT13=
PLAYORDER=
